<svg id="white" xmlns="http://www.w3.org/2000/svg" viewBox="0 0 307.01 124.91"><defs><style>.cls-1{fill:#fff;}</style></defs><title>uxArtboard 1 copy 3</title><path class="cls-1" d="M221.08,86.6l-1.23-5.32h-3l2.85,8.65v5.93h2.85V89.93l2.83-8.65h-3l-1.14,5.32Zm-2.92,9.26V93.14h-3.6V81.28H211.7V95.86Zm-9.41-7.73a2,2,0,0,0,.72-.44A2.49,2.49,0,0,0,210,87a3.5,3.5,0,0,0,.28-.81,4,4,0,0,0,.09-.87,4.26,4.26,0,0,0-1-3,3.85,3.85,0,0,0-2.92-1h-3.29V95.86h3.23a4,4,0,0,0,3.06-1.1,4.93,4.93,0,0,0,1-3.45,5.68,5.68,0,0,0-.08-1,3.33,3.33,0,0,0-.28-.89,2.57,2.57,0,0,0-.52-.72,2.13,2.13,0,0,0-.83-.48Zm-1,3.93a1.89,1.89,0,0,1-.18.63,1.09,1.09,0,0,1-.38.43,1.15,1.15,0,0,1-.64.16h-.63V89.53h.65a1.13,1.13,0,0,1,.91.36,2,2,0,0,1,.3,1.24c0,.28,0,.68,0,.92m-1.34-5.16h-.49V83.78h.42a1.48,1.48,0,0,1,1,.28c.21.19.31.6.31,1.36q0,1.47-1.26,1.47m-9,6.12,1.34-5.31h.17v8.16h2.85V81.28H199l-1.42,3.83-1,3h-.13l-1-2.89L194,81.28h-2.66V95.86h2.85V87.64h.19L195.75,93Zm-6.88,2.85V93.14H186.6V89.83H190V87.1H186.6V84h3.83V81.28h-6.68V95.86Zm-7.95-5.79a3.25,3.25,0,0,0-.4-1.18,3.29,3.29,0,0,0-.89-1,6.86,6.86,0,0,0-1.59-.84,6,6,0,0,1-.91-.43,1.86,1.86,0,0,1-.49-.41,1,1,0,0,1-.21-.44,3,3,0,0,1,0-.52,3.9,3.9,0,0,1,0-.48,1.44,1.44,0,0,1,.12-.45,1,1,0,0,1,.26-.33.69.69,0,0,1,.46-.14.82.82,0,0,1,.49.13.87.87,0,0,1,.28.34,1.6,1.6,0,0,1,.14.49,5.45,5.45,0,0,1,0,.59l2.81-.61a5,5,0,0,0-.17-1.26,3.27,3.27,0,0,0-.58-1.18,3.06,3.06,0,0,0-1.12-.88,4.12,4.12,0,0,0-1.8-.35,4.38,4.38,0,0,0-1.75.31,3.08,3.08,0,0,0-1.17.86,3.45,3.45,0,0,0-.66,1.31,6.28,6.28,0,0,0-.21,1.66,7.59,7.59,0,0,0,.11,1.31,3,3,0,0,0,.45,1.13,3.88,3.88,0,0,0,1,1,8.35,8.35,0,0,0,1.72.91,6.34,6.34,0,0,1,.67.32,1.4,1.4,0,0,1,.43.37,1.25,1.25,0,0,1,.22.5,3.64,3.64,0,0,1,.06.73c0,.21,0,.42,0,.63a1.93,1.93,0,0,1-.13.54.93.93,0,0,1-.27.38.88.88,0,0,1-1.22-.25,3.2,3.2,0,0,1-.24-1.19l-2.87.54a5,5,0,0,0,.21,1.46,3.23,3.23,0,0,0,.66,1.2,3,3,0,0,0,1.17.81,4.57,4.57,0,0,0,1.73.29,4.7,4.7,0,0,0,1.84-.31,2.79,2.79,0,0,0,1.16-.89,3.6,3.6,0,0,0,.61-1.39,8.59,8.59,0,0,0,.18-1.82,10.61,10.61,0,0,0-.09-1.5m-8.42,0a3.25,3.25,0,0,0-.4-1.18,3.29,3.29,0,0,0-.89-1,6.88,6.88,0,0,0-1.58-.84,6,6,0,0,1-.91-.43,1.89,1.89,0,0,1-.49-.41,1,1,0,0,1-.21-.44,3,3,0,0,1,0-.52,3.89,3.89,0,0,1,0-.48,1.48,1.48,0,0,1,.13-.45A1,1,0,0,1,170,84a.7.7,0,0,1,.46-.14.82.82,0,0,1,.49.13.87.87,0,0,1,.28.34,1.6,1.6,0,0,1,.13.49,5.12,5.12,0,0,1,0,.59l2.81-.61a5,5,0,0,0-.17-1.26,3.29,3.29,0,0,0-.58-1.18,3.07,3.07,0,0,0-1.12-.88,4.12,4.12,0,0,0-1.8-.35,4.38,4.38,0,0,0-1.75.31,3.07,3.07,0,0,0-1.17.86,3.45,3.45,0,0,0-.66,1.31,6.28,6.28,0,0,0-.21,1.66,7.6,7.6,0,0,0,.1,1.31,3,3,0,0,0,.45,1.13,3.9,3.9,0,0,0,1,1,8.4,8.4,0,0,0,1.72.91,6.34,6.34,0,0,1,.67.32,1.43,1.43,0,0,1,.43.37,1.25,1.25,0,0,1,.22.5,3.54,3.54,0,0,1,.06.73,6.27,6.27,0,0,1,0,.63,2,2,0,0,1-.12.54,1,1,0,0,1-.27.38.88.88,0,0,1-1.22-.25,3.17,3.17,0,0,1-.24-1.19l-2.87.54a5,5,0,0,0,.21,1.46,3.22,3.22,0,0,0,.66,1.2,3,3,0,0,0,1.17.81,4.57,4.57,0,0,0,1.73.29,4.71,4.71,0,0,0,1.84-.31,2.78,2.78,0,0,0,1.16-.89,3.6,3.6,0,0,0,.61-1.39,8.68,8.68,0,0,0,.18-1.82,10.61,10.61,0,0,0-.09-1.5m-12.45-5h.13l.31,3,.27,2.32H161L161.3,88Zm1.57,10.81h3l-2.79-14.58h-3.48l-2.76,14.58h3l.44-2.85h2.14Zm-9.84,0V93.14H149.5V81.28h-2.85V95.86Zm-12-10.81h.13l.31,3,.27,2.32h-1.32L141,88Zm1.57,10.81h3l-2.79-14.58h-3.48l-2.76,14.58h3l.44-2.85h2.14ZM132.33,84a1.48,1.48,0,0,1,1.06.39,1.62,1.62,0,0,1,.41,1.23,2.72,2.72,0,0,1-.13.91,1.42,1.42,0,0,1-.35.56,1.15,1.15,0,0,1-.49.28,2.27,2.27,0,0,1-.59.07h-.44V84ZM129,81.28V95.86h2.85V90.18h.56l1.72,5.68H137l-2.09-6.33A3.4,3.4,0,0,0,136.12,88a6.29,6.29,0,0,0,.4-2.43,5.92,5.92,0,0,0-.3-2,3.43,3.43,0,0,0-.85-1.34,3.14,3.14,0,0,0-1.3-.73,5.91,5.91,0,0,0-1.66-.22Zm-1,14.58V93.14h-3.83V89.83h3.35V87.1h-3.35V84h3.83V81.28h-6.68V95.86Zm-11.1-7-2.7-7.57h-2.49V95.86h2.85V88.17h.1l2.71,7.69h2.42V81.28h-2.79v7.57Zm-6.18,7V93.14h-3.83V89.83h3.35V87.1h-3.35V84h3.83V81.28h-6.68V95.86ZM96.25,82.2a3.93,3.93,0,0,0-1,2.79V92.3a3.81,3.81,0,0,0,.9,2.76A3.87,3.87,0,0,0,99,96a3.76,3.76,0,0,0,2.72-.93,3.64,3.64,0,0,0,1-2.73V87.73H99.17v2.49H100v2.24a.71.71,0,0,1-.27.58,1.12,1.12,0,0,1-.71.22c-.35,0-.68-.09-.77-.27a1.2,1.2,0,0,1-.14-.56V85a1.73,1.73,0,0,1,0-.35,1.11,1.11,0,0,1,.14-.37.9.9,0,0,1,.28-.28.83.83,0,0,1,.46-.11.77.77,0,0,1,.69.43,2.22,2.22,0,0,1,.28,1.08l2.76-.48a4.15,4.15,0,0,0-.14-1.49,2.88,2.88,0,0,0-.67-1.19,3.19,3.19,0,0,0-1.19-.79,4.68,4.68,0,0,0-1.71-.28,3.65,3.65,0,0,0-2.82,1"/><path class="cls-1" d="M79.09,63.48a4.24,4.24,0,0,1,4.24-4.24l-1-5.24A4.24,4.24,0,0,1,79,46.17l-3-4.44a4.24,4.24,0,0,1-6-6l-4.44-3a4.24,4.24,0,1,1-7.83-3.24l-5.24-1a4.24,4.24,0,1,1-8.48,0l-5.24,1A4.24,4.24,0,0,1,31,32.76l-4.44,3a4.24,4.24,0,0,1-6,6l-3,4.44A4.24,4.24,0,0,1,14.38,54l-1,5.24a4.24,4.24,0,0,1,0,8.48l1,5.24a4.24,4.24,0,0,1,3.24,7.84l3,4.44a4.24,4.24,0,0,1,6,6l4.44,3a4.24,4.24,0,0,1,7.83,3.24l5.24,1a4.24,4.24,0,0,1,8.48,0l5.24-1a4.24,4.24,0,0,1,7.83-3.24l4.44-3a4.24,4.24,0,1,1,6-6l3-4.44A4.24,4.24,0,1,1,82.29,73l1-5.24A4.24,4.24,0,0,1,79.09,63.48Zm-32.83-7H40.7V50.34a3.72,3.72,0,0,0-.08-.68,2.15,2.15,0,0,0-.28-.72,1.7,1.7,0,0,0-.55-.56,1.58,1.58,0,0,0-.89-.23h-.08a1.6,1.6,0,0,0-.9.23,1.74,1.74,0,0,0-.54.56,2.28,2.28,0,0,0-.28.72,3.27,3.27,0,0,0-.08.68V77.15a2.39,2.39,0,0,0,.28,1.12c.18.36.63.54,1.32.54a2,2,0,0,0,1.32-.44,1.41,1.41,0,0,0,.52-1.13V69.49H39.22V64.57H46V76.94a7.23,7.23,0,0,1-1.88,5.4,7.27,7.27,0,0,1-5.31,1.85c-2.57,0-4.43-.61-5.61-1.82a7.61,7.61,0,0,1-1.76-5.46V50.34a7.8,7.8,0,0,1,1.91-5.5,7.07,7.07,0,0,1,5.5-2.07,7.07,7.07,0,0,1,5.5,2.07,7.8,7.8,0,0,1,1.91,5.5ZM59.37,83.93,58.11,74H54.74l-1.26,9.94H47.59L53,43h6.78l5.43,40.92Z"/><ellipse class="cls-1" cx="56.42" cy="66.29" rx="3.08" ry="3.12"/><path class="cls-1" d="M112,51.52a6.37,6.37,0,0,1,2.45,1.43A7.57,7.57,0,0,1,116,55.09a9.84,9.84,0,0,1,.84,2.63,17,17,0,0,1,.25,2.91q0,6.94-3,10.2T105,74.09H95.44V30.94h9.73q5.77,0,8.65,3t2.88,9a12,12,0,0,1-.28,2.57,10.2,10.2,0,0,1-.84,2.39,7.26,7.26,0,0,1-1.46,2,5.78,5.78,0,0,1-2.14,1.3Zm-3.35-8.31q0-2.54-.93-3.38a4.37,4.37,0,0,0-3-.84h-.87v8.56h1.05Q108.64,47.55,108.64,43.21ZM109,60.1a5.76,5.76,0,0,0-.9-3.68,3.34,3.34,0,0,0-2.7-1.06h-1.55V66h1.49a3.4,3.4,0,0,0,1.89-.47,3.19,3.19,0,0,0,1.12-1.28,5.67,5.67,0,0,0,.53-1.87A20.08,20.08,0,0,0,109,60.1Z"/><path class="cls-1" d="M121,74.09V30.94h8.43V74.09Z"/><path class="cls-1" d="M147.24,39V74.09H138.8V39h-6.63V30.94h21.7V39Z"/><path class="cls-1" d="M168.93,65.66l-1.79-5.52-2-6.39h-.31V74.09h-8.43V30.94h7.87l4.28,11.53L171.49,51h.37l3-8.74,4.22-11.35h7.87V74.09H178.5V53.94h-.25l-2,6.7-1.67,5Z"/><path class="cls-1" d="M204.37,65.66H198l-1.3,8.43h-8.93L196,30.94h10.29l8.25,43.15h-8.87Zm-4.28-14.82-.87,6.88h3.91l-.81-6.88-.93-8.74H201Z"/><path class="cls-1" d="M224.24,44.27l5.89-13.33h9l-9,17.86,9.92,25.3h-8.74l-6-16.55-1.49,3.91V74.09h-8.43V30.94h8.43V44.27Z"/><path class="cls-1" d="M241.55,74.09V30.94h19.78V39H250v9.18h9.92v8.06H250V66h11.35v8.06Z"/><path class="cls-1" d="M274.79,30.94a17.46,17.46,0,0,1,4.9.65,9.31,9.31,0,0,1,3.84,2.17,10.16,10.16,0,0,1,2.51,4,17.45,17.45,0,0,1,.9,6,18.68,18.68,0,0,1-1.18,7.19,10.08,10.08,0,0,1-3.6,4.46l6.2,18.72h-8.62l-5.08-16.8H273v16.8h-8.43V30.94ZM273,39V49.17h1.3a6.66,6.66,0,0,0,1.74-.22,3.36,3.36,0,0,0,1.46-.84,4.21,4.21,0,0,0,1-1.64,8.06,8.06,0,0,0,.37-2.7,4.8,4.8,0,0,0-1.21-3.63A4.37,4.37,0,0,0,274.55,39Z"/><path class="cls-1" d="M234.19,84V95.84h-2.84V84h-2.24V81.3h7.31V84Z"/><path class="cls-1" d="M244.71,92.29a3.68,3.68,0,0,1-.94,2.78A3.88,3.88,0,0,1,241,96q-3.7,0-3.7-3.68V84.83a3.56,3.56,0,0,1,1-2.77,4.74,4.74,0,0,1,5.53,0,3.72,3.72,0,0,1,.91,2.77Zm-2.88-7.57a.78.78,0,0,0-.84-.9.92.92,0,0,0-.61.21.85.85,0,0,0-.25.69v7.69a.85.85,0,0,0,.25.7.94.94,0,0,0,.61.2.9.9,0,0,0,.6-.2.87.87,0,0,0,.24-.7Z"/><path class="cls-1" d="M249.49,81.3a5.89,5.89,0,0,1,1.65.22,3.14,3.14,0,0,1,1.3.73,3.43,3.43,0,0,1,.85,1.34,5.88,5.88,0,0,1,.3,2,6.3,6.3,0,0,1-.4,2.42,3.4,3.4,0,0,1-1.21,1.5l2.09,6.31h-2.9l-1.71-5.66h-.56v5.66H246V81.3ZM248.89,84v3.43h.44a2.25,2.25,0,0,0,.58-.07,1.13,1.13,0,0,0,.49-.28,1.42,1.42,0,0,0,.34-.55,2.72,2.72,0,0,0,.13-.91,1.62,1.62,0,0,0-.41-1.22,1.47,1.47,0,0,0-1.06-.39Z"/><path class="cls-1" d="M262.15,92.29a3.68,3.68,0,0,1-.94,2.78,3.88,3.88,0,0,1-2.78.9q-3.7,0-3.7-3.68V84.83a3.56,3.56,0,0,1,1-2.77,4.74,4.74,0,0,1,5.53,0,3.72,3.72,0,0,1,.91,2.77Zm-2.88-7.57a.78.78,0,0,0-.84-.9.92.92,0,0,0-.61.21.85.85,0,0,0-.25.69v7.69a.85.85,0,0,0,.25.7.94.94,0,0,0,.61.2.9.9,0,0,0,.6-.2.87.87,0,0,0,.24-.7Z"/><path class="cls-1" d="M268.74,88.17V81.3h2.78V95.84H269.1L267.4,91.6l-1-2.76h-.1v7h-2.84V81.3h2.49l1.71,4.22,1,2.65Z"/><path class="cls-1" d="M277.46,84V95.84h-2.84V84h-2.24V81.3h7.31V84Z"/><path class="cls-1" d="M288,92.29a3.68,3.68,0,0,1-.94,2.78,3.88,3.88,0,0,1-2.78.9q-3.7,0-3.7-3.68V84.83a3.56,3.56,0,0,1,1-2.77,4.74,4.74,0,0,1,5.53,0,3.72,3.72,0,0,1,.91,2.77Zm-2.88-7.57a.78.78,0,0,0-.84-.9.92.92,0,0,0-.61.21.85.85,0,0,0-.25.69v7.69a.85.85,0,0,0,.25.7.94.94,0,0,0,.61.2.9.9,0,0,0,.6-.2.87.87,0,0,0,.24-.7Z"/></svg>