		<svg id="Layer_1" xmlns="http://www.w3.org/2000/svg" viewBox="0 0 576 191.2">
		<style>
		
.path {
  stroke-dasharray: 1000;
  stroke-dashoffset: 1000;
  animation: dash 5s linear forwards;
}

@keyframes dash {
  to {
    stroke-dashoffset: 0;
  }
}
		</style>
			<defs>
				<linearGradient id="left-to-right" >
					<stop offset="0" stop-color="#fff">
						<animate dur="2.5s" attributeName="offset" fill="freeze" from="0" to="1" />
					</stop>
					<stop offset="0" stop-color="transparent">
						<animate dur="2.5s" attributeName="offset" fill="freeze" from="0" to="1" />
					</stop>
				</linearGradient>
			</defs>

			<path class="st0 path" fill="url(#left-to-right)" stroke="#fff" d="M412.4 13.7c0-.1 0-.1 0 0 0-7.6-5.5-14-13.8-14s-13.9 6.5-13.9 14v.1c0 7.4 5.5 13.9 13.7 13.9h.2c8.2-.1 13.8-6.6 13.8-14zM64 92.2c0 17.9-8.7 26.3-21.3 26.3-11.4 0-19.2-5.8-27.1-15.8L0 118.8c8.8 12.1 22.3 21.7 43.1 21.7 13.5 0 24.8-4 32.7-11.9 7.9-7.9 12.5-19.8 12.5-35.8V3.9H64v88.3zM176.4 118.9c-21.2 0-34-13.5-34-38.5V3.9h-23.7v77.5c0 39 22.3 59.2 57.3 59.2 31.3 0 52.7-16 57.1-47.8h-23.9c-3.6 17.3-15.4 26.1-32.8 26.1zM210.2 3.9h23.7v23.7h-23.7zM266.4 3.9h23.7v23.7h-23.7zM266.4 138.6h94.4V117H290V92.9h-23.6zM386.7 92.9h23.7v45.7h-23.7zM516 3h-21.9l-59.2 135.6h24.2l13.9-32.5h63.7l13.7 32.5h25L516 3zm-34.4 82.1l23.1-53.9L528 85.1h-46.4zM398.6 27.7h-.2.2z">
			</path>
			<g>
				<path class="st0 path"  fill="url(#left-to-right)" stroke="#fff"  d="M210.2 45.8h12c3.2 0 5.8.9 7.4 2.5 1.2 1.2 1.8 2.7 1.8 4.5v.1c0 3.7-2.3 5.6-4.5 6.5 3.4 1 6.1 2.9 6.1 6.8v.1c0 4.8-4.1 7.7-10.3 7.7h-12.6V45.8zm11.5 12.6c3.8 0 6.5-1.7 6.5-5.1v-.1c0-2.8-2.2-4.6-6.3-4.6h-8.6v9.7h8.4zm1.1 12.8c4.3 0 6.9-1.9 6.9-5V66c0-3.1-2.6-4.8-7.5-4.8h-8.9v10h9.5zM249.8 45.6h3L265.7 74h-3.4l-3.3-7.5h-15.4l-3.3 7.5H237l12.8-28.4zm7.9 18.1l-6.4-14.4-6.5 14.4h12.9zM271.2 45.8h3.2v25.3h15.9v3h-19.1V45.8zM296.2 45.8h20.3v2.9h-17.1v10.1h15.3v2.9h-15.3V74h-3.2V45.8zM320.8 60c0-7.9 5.9-14.7 14.5-14.7s14.4 6.7 14.4 14.5v.1c0 7.8-5.9 14.6-14.5 14.6s-14.4-6.7-14.4-14.5zm25.5 0c0-6.5-4.7-11.8-11.1-11.8-6.5 0-11.1 5.2-11.1 11.6v.1c0 6.4 4.7 11.7 11.1 11.7 6.5 0 11.1-5.2 11.1-11.6zM355.9 62.2V45.8h3.2V62c0 6.1 3.2 9.5 8.7 9.5 5.2 0 8.5-3.1 8.5-9.3V45.8h3.2V62c0 8.2-4.7 12.5-11.8 12.5-7 0-11.8-4.3-11.8-12.3zM387 45.8h12.2c3.5 0 6.3 1 8 2.8 1.4 1.4 2.2 3.3 2.2 5.6v.1c0 4.7-3.2 7.4-7.7 8.2l8.7 11.6h-3.9l-8.2-11h-8.1v11H387V45.8zm11.9 14.4c4.2 0 7.3-2.2 7.3-5.8v-.1c0-3.5-2.7-5.6-7.2-5.6h-8.7v11.5h8.6z"/>
			</g>
			<g>
				<path class="st0 path" fill="url(#left-to-right)" stroke="#fff"  d="M13 191.2v-.5h.7c1.3-.1 1.3-.6 0-4.1l-1.1-2.8H6.4l-.6 1.6c-.5 1.3-.7 2.4-.7 3.4s.3 1.7 1.4 1.8h.6v.5H1.6v-.5h.3c1-.1 1.6-.7 3.3-5.2l4.9-12.7h.5l5.6 13.6c1.6 3.8 1.9 4.1 3 4.2h.2v.5H13zm-6.4-7.9h5.9l-3-7.7-2.9 7.7zM49.8 191.4l-13.9-16.5v9.8c0 3.4 1.2 5.9 2.6 6h.6v.5h-5.8v-.5h.3c1.2-.1 1.9-1.9 1.9-6v-7.5c0-3.3-.5-3.6-1.7-3.7h-.5v-.5h4.4l12.2 14.8v-8.7c0-3.2-1.1-5.5-2.6-5.6h-.6v-.5h5.8v.5h-.3c-1.3.1-1.9 2-1.9 5.6v12.3h-.5zM86.6 191.2v-.5h.6c1.3-.1 1.6-.4 1.6-4.1v-9c0-3.7-.2-4-1.6-4.1h-.6v-.5h6.7v.5h-.6c-1.3.1-1.6.4-1.6 4.1v9c0 3.7.2 4 1.6 4.1h.6v.5h-6.7zM124.3 191.4l-13.9-16.5v9.8c0 3.4 1.2 5.9 2.6 6h.6v.5h-5.8v-.5h.3c1.2-.1 1.9-1.9 1.9-6v-7.5c0-3.3-.5-3.6-1.7-3.7h-.5v-.5h4.4l12.2 14.8v-8.7c0-3.2-1.1-5.5-2.6-5.6h-.6v-.5h5.8v.5h-.3c-1.3.1-1.9 2-1.9 5.6v12.3h-.5zM145.8 191.2v-.5h.6c1.3-.1 1.6-.4 1.6-4.1v-9.1c0-3.6-.1-4-1.3-4h-.5c-1.7 0-2.9.6-4 4l-.3.9h-.4V173h15.3v5.4h-.4l-.3-.9c-1.1-3.4-2.3-4-4-4h-.5c-1.2 0-1.3.3-1.3 4v9.1c0 3.7.2 4 1.6 4.1h.6v.5h-6.7zM171.4 191.2v-.5h.6c1.3-.1 1.6-.4 1.6-4.1v-9c0-3.7-.2-4-1.6-4.1h-.6v-.5h13.2v4.9h-.4l-.3-.9c-.9-3-2.9-3.5-5.5-3.5h-1.2c-1.2 0-1.3.4-1.3 4.1v4h1.5c1.2 0 2.5-.1 3-2.2l.2-.6h.4v6.1h-.4l-.2-.6c-.6-2.1-1.9-2.2-3-2.2h-1.5v4.5c0 3.6.1 4.1 1.3 4.1h1.7c2.8 0 4.4-.8 5.5-4.3l.3-.9h.4v5.7h-13.7zM215.3 191.5c-.6-.9-1.1-1.3-1.7-1.3-.3 0-.5.1-.9.3-1.1.7-2.3 1-3.6 1-5.6 0-8.4-4.6-8.4-9.4 0-4.8 2.9-9.4 8.3-9.4 1.1 0 2.1.3 3.1.8.5.2.8.3 1.1.3.4 0 .8-.3 1.4-1.1h.3v5.2h-.4l-.3-.9c-.6-1.9-2.5-3.8-5.2-3.8-4 0-5.5 4.4-5.5 8.9 0 4.4 1.4 8.9 5.7 8.9 1.3 0 2.4-.4 3.2-1 .7-.5.9-1 .9-2.2v-.7c0-3.7-.2-3.9-2.6-4.1h-.6v-.5h7.8v.5h-.6c-1.3.1-1.6.4-1.6 4.1v4.4h-.4zM245 191.2c-.2-.5-.6-1.2-1.1-2.2-.5-1-1.3-2.6-1.8-3.4-1.5-2.5-2.3-3.1-4.1-3.1h-1.6v4.2c0 3.7.2 4 1.6 4.1h.6v.5h-6.7v-.5h.6c1.3-.1 1.6-.4 1.6-4.1v-9c0-3.7-.2-4-1.6-4.1h-.6v-.5h8.9c3.2 0 5.9 1.5 5.9 4.6 0 2-1.3 3.6-3.1 4.2-1.2.4-2.2.5-3.3.5 2.6.8 3.3 1.4 4.4 3.1.5.9 1.2 1.9 1.4 2.4 1.2 1.9 2 2.8 3 2.9h.5v.5H245zm-4.3-17.7h-3c-1.2 0-1.3.4-1.3 4.1v4.3h4.1c2.8 0 3.4-1.9 3.4-4.2-.1-2.7-1.3-4.2-3.2-4.2zM274.4 191.2v-.5h.7c1.3-.1 1.3-.6 0-4.1l-1.1-2.8h-6.2l-.6 1.6c-.5 1.3-.7 2.4-.7 3.4s.3 1.7 1.4 1.8h.6v.5H263v-.5h.3c1-.1 1.6-.7 3.3-5.2l4.9-12.7h.5l5.6 13.6c1.6 3.8 1.9 4.1 3 4.2h.2v.5h-6.4zm-6.4-7.9h5.9l-3-7.7-2.9 7.7zM296.4 191.2v-.5h.6c1.3-.1 1.6-.4 1.6-4.1v-9.1c0-3.6-.1-4-1.3-4h-.5c-1.7 0-2.9.6-4 4l-.3.9h-.4V173h15.3v5.4h-.4l-.3-.9c-1.1-3.4-2.3-4-4-4h-.5c-1.2 0-1.3.3-1.3 4v9.1c0 3.7.2 4 1.6 4.1h.6v.5h-6.7zM322 191.2v-.5h.6c1.3-.1 1.6-.4 1.6-4.1v-9c0-3.7-.2-4-1.6-4.1h-.6v-.5h13.2v4.9h-.4l-.3-.9c-.9-3-2.9-3.5-5.5-3.5h-1.2c-1.2 0-1.3.4-1.3 4.1v4h1.5c1.2 0 2.5-.1 3-2.2l.2-.6h.4v6.1h-.4l-.2-.6c-.6-2.1-1.9-2.2-3-2.2h-1.5v4.5c0 3.6.1 4.1 1.3 4.1h1.7c2.8 0 4.4-.8 5.5-4.3l.3-.9h.4v5.7H322zM360.3 191.2h-8.6v-.5h.6c1.3-.1 1.6-.4 1.6-4.1v-9c0-3.7-.2-4-1.6-4.1h-.6v-.5h8.6c6.1 0 9.3 4.1 9.3 9 0 5-3.4 9.2-9.3 9.2zm0-17.7h-2.8c-1.2 0-1.3.4-1.3 4.1v9c0 3.6.1 4.1 1.3 4.1h2.8c4.7 0 6.5-4.3 6.5-8.6 0-4.5-2.2-8.6-6.5-8.6zM415.4 191.2v-.5h.7c1.3-.1 1.3-.6 0-4.1l-1.1-2.8h-6.2l-.6 1.6c-.5 1.3-.7 2.4-.7 3.4s.3 1.7 1.4 1.8h.6v.5H404v-.5h.3c1-.1 1.6-.7 3.3-5.2l4.9-12.7h.5l5.6 13.6c1.6 3.8 1.9 4.1 3 4.2h.2v.5h-6.4zm-6.5-7.9h5.9l-3-7.7-2.9 7.7zM449.8 191.5c-.6-.9-1.1-1.3-1.7-1.3-.3 0-.5.1-.9.3-1.1.7-2.3 1-3.6 1-5.6 0-8.4-4.6-8.4-9.4 0-4.8 2.9-9.4 8.3-9.4 1.1 0 2.1.3 3.1.8.5.2.8.3 1.1.3.4 0 .8-.3 1.4-1.1h.3v5.2h-.4l-.3-.9c-.6-1.9-2.5-3.8-5.2-3.8-4 0-5.5 4.4-5.5 8.9 0 4.4 1.4 8.9 5.7 8.9 1.3 0 2.4-.4 3.2-1 .7-.5.9-1 .9-2.2v-.7c0-3.7-.2-3.9-2.6-4.1h-.6v-.5h7.8v.5h-.6c-1.3.1-1.6.4-1.6 4.1v4.4h-.4zM466.3 191.2v-.5h.6c1.3-.1 1.6-.4 1.6-4.1v-9c0-3.7-.2-4-1.6-4.1h-.6v-.5h13.2v4.9h-.4l-.3-.9c-.9-3-2.9-3.5-5.5-3.5h-1.2c-1.2 0-1.3.4-1.3 4.1v4h1.5c1.2 0 2.5-.1 3-2.2l.2-.6h.4v6.1h-.4l-.2-.6c-.6-2.1-1.9-2.2-3-2.2h-1.5v4.5c0 3.6.1 4.1 1.3 4.1h1.7c2.8 0 4.4-.8 5.5-4.3l.3-.9h.4v5.7h-13.7zM512.5 191.4l-13.9-16.5v9.8c0 3.4 1.2 5.9 2.6 6h.6v.5H496v-.5h.3c1.2-.1 1.9-1.9 1.9-6v-7.5c0-3.3-.5-3.6-1.7-3.7h-.5v-.5h4.4l12.2 14.8v-8.7c0-3.2-1.1-5.5-2.6-5.6h-.6v-.5h5.8v.5h-.3c-1.3.1-1.9 2-1.9 5.6v12.3h-.5zM544.7 191.5c-.6-.9-1.2-1.3-1.7-1.3-.2 0-.4.1-.8.3-1 .6-2 1-3.3 1-5.6 0-8.4-4.6-8.4-9.4 0-4.8 2.9-9.4 8.3-9.4 1.1 0 2.1.3 3.1.8.5.2.8.3 1.1.3.4 0 .9-.3 1.4-1.1h.3v5.2h-.4l-.3-.9c-.6-1.9-2.5-3.8-5.2-3.8-4 0-5.5 4.5-5.5 8.9 0 4.5 1.6 8.9 5.6 8.9 3.2 0 5-2.8 5.6-4.6l.3-.9h.4v6h-.5zM564 191.2v-.5h.6c1.3-.1 1.6-.4 1.6-4.1v-4l-3-4.7c-2.2-3.5-2.8-4.3-3.9-4.3h-.5v-.5h6.6v.5h-.6c-1.5.1-1 .9.9 4.2l2.5 4.2 2.1-3.2c.8-1.2 1.6-2.8 1.6-3.8 0-.8-.3-1.4-1.4-1.5h-.6v-.5h5.9v.5h-.6c-1 .1-1.5.8-4.4 5.3l-2.4 3.6v4.2c0 3.7.2 4 1.6 4.1h.6v.5H564z"/>
			</g>
		</svg>