<?xml version="1.0" encoding="utf-8"?>
<!-- Generator: Adobe Illustrator 21.0.2, SVG Export Plug-In . SVG Version: 6.00 Build 0)  -->
<svg version="1.1" id="Layer_1" xmlns="http://www.w3.org/2000/svg" xmlns:xlink="http://www.w3.org/1999/xlink" x="0px" y="0px"
	 viewBox="0 0 576 191.2" style="enable-background:new 0 0 576 191.2;" xml:space="preserve">
<style type="text/css">
	.st0{fill:#FFFFFF;}
</style>
<g>
	<g>
		<g>
			<path class="st0" d="M412.4,13.7C412.4,13.6,412.4,13.6,412.4,13.7c0-7.6-5.5-14-13.8-14c-8.3,0-13.9,6.5-13.9,14v0.1
				c0,7.4,5.5,13.9,13.7,13.9h0.2C406.8,27.6,412.4,21.1,412.4,13.7z"/>
			<path class="st0" d="M64,92.2c0,17.9-8.7,26.3-21.3,26.3c-11.4,0-19.2-5.8-27.1-15.8L0,118.8c8.8,12.1,22.3,21.7,43.1,21.7
				c13.5,0,24.8-4,32.7-11.9c7.9-7.9,12.5-19.8,12.5-35.8V3.9H64V92.2z"/>
			<path class="st0" d="M176.4,118.9c-21.2,0-34-13.5-34-38.5V3.9h-23.7v77.5c0,39,22.3,59.2,57.3,59.2c31.3,0,52.7-16,57.1-47.8
				h-23.9C205.6,110.1,193.8,118.9,176.4,118.9z"/>
			<rect x="210.2" y="3.9" class="st0" width="23.7" height="23.7"/>
			<rect x="266.4" y="3.9" class="st0" width="23.7" height="23.7"/>
			<polygon class="st0" points="266.4,138.6 360.8,138.6 360.8,117 290,117 290,92.9 266.4,92.9 			"/>
			<rect x="386.7" y="92.9" class="st0" width="23.7" height="45.7"/>
			<path class="st0" d="M516,3h-21.9l-59.2,135.6h24.2l13.9-32.5h63.7l13.7,32.5h25L516,3z M481.6,85.1l23.1-53.9l23.3,53.9H481.6z"
				/>
			<path class="st0" d="M398.6,27.7h-0.2c0,0,0.1,0,0.1,0C398.6,27.7,398.6,27.7,398.6,27.7z"/>
		</g>
		<g>
			<path class="st0" d="M210.2,45.8h12c3.2,0,5.8,0.9,7.4,2.5c1.2,1.2,1.8,2.7,1.8,4.5v0.1c0,3.7-2.3,5.6-4.5,6.5
				c3.4,1,6.1,2.9,6.1,6.8v0.1c0,4.8-4.1,7.7-10.3,7.7h-12.6V45.8z M221.7,58.4c3.8,0,6.5-1.7,6.5-5.1v-0.1c0-2.8-2.2-4.6-6.3-4.6
				h-8.6v9.7H221.7z M222.8,71.2c4.3,0,6.9-1.9,6.9-5V66c0-3.1-2.6-4.8-7.5-4.8h-8.9v10H222.8z"/>
			<path class="st0" d="M249.8,45.6h3L265.7,74h-3.4l-3.3-7.5h-15.4l-3.3,7.5h-3.3L249.8,45.6z M257.7,63.7l-6.4-14.4l-6.5,14.4
				H257.7z"/>
			<path class="st0" d="M271.2,45.8h3.2v25.3h15.9v3h-19.1V45.8z"/>
			<path class="st0" d="M296.2,45.8h20.3v2.9h-17.1v10.1h15.3v2.9h-15.3V74h-3.2V45.8z"/>
			<path class="st0" d="M320.8,60L320.8,60c0-7.9,5.9-14.7,14.5-14.7c8.6,0,14.4,6.7,14.4,14.5c0,0,0,0,0,0.1
				c0,7.8-5.9,14.6-14.5,14.6C326.6,74.5,320.8,67.8,320.8,60z M346.3,60L346.3,60c0-6.5-4.7-11.8-11.1-11.8
				c-6.5,0-11.1,5.2-11.1,11.6v0.1c0,6.4,4.7,11.7,11.1,11.7C341.7,71.6,346.3,66.4,346.3,60z"/>
			<path class="st0" d="M355.9,62.2V45.8h3.2V62c0,6.1,3.2,9.5,8.7,9.5c5.2,0,8.5-3.1,8.5-9.3V45.8h3.2V62c0,8.2-4.7,12.5-11.8,12.5
				C360.7,74.5,355.9,70.2,355.9,62.2z"/>
			<path class="st0" d="M387,45.8h12.2c3.5,0,6.3,1,8,2.8c1.4,1.4,2.2,3.3,2.2,5.6v0.1c0,4.7-3.2,7.4-7.7,8.2l8.7,11.6h-3.9l-8.2-11
				h-0.1h-8v11H387V45.8z M398.9,60.2c4.2,0,7.3-2.2,7.3-5.8v-0.1c0-3.5-2.7-5.6-7.2-5.6h-8.7v11.5H398.9z"/>
		</g>
	</g>
</g>
<g>
	<path class="st0" d="M13,191.2v-0.5l0.7,0c1.3-0.1,1.3-0.6,0-4.1l-1.1-2.8H6.4l-0.6,1.6c-0.5,1.3-0.7,2.4-0.7,3.4
		c0,1,0.3,1.7,1.4,1.8l0.6,0v0.5H1.6v-0.5l0.3,0c1-0.1,1.6-0.7,3.3-5.2l4.9-12.7h0.5l5.6,13.6c1.6,3.8,1.9,4.1,3,4.2l0.2,0v0.5H13z
		 M6.6,183.3h5.9l-3-7.7L6.6,183.3z"/>
	<path class="st0" d="M49.8,191.4l-13.9-16.5v9.8c0,3.4,1.2,5.9,2.6,6l0.6,0v0.5h-5.8v-0.5l0.3,0c1.2-0.1,1.9-1.9,1.9-6v-7.5
		c0-3.3-0.5-3.6-1.7-3.7l-0.5,0v-0.5h4.4l12.2,14.8v-8.7c0-3.2-1.1-5.5-2.6-5.6l-0.6,0v-0.5h5.8v0.5l-0.3,0c-1.3,0.1-1.9,2-1.9,5.6
		v12.3H49.8z"/>
	<path class="st0" d="M86.6,191.2v-0.5l0.6,0c1.3-0.1,1.6-0.4,1.6-4.1v-9c0-3.7-0.2-4-1.6-4.1l-0.6,0v-0.5h6.7v0.5l-0.6,0
		c-1.3,0.1-1.6,0.4-1.6,4.1v9c0,3.7,0.2,4,1.6,4.1l0.6,0v0.5H86.6z"/>
	<path class="st0" d="M124.3,191.4l-13.9-16.5v9.8c0,3.4,1.2,5.9,2.6,6l0.6,0v0.5h-5.8v-0.5l0.3,0c1.2-0.1,1.9-1.9,1.9-6v-7.5
		c0-3.3-0.5-3.6-1.7-3.7l-0.5,0v-0.5h4.4l12.2,14.8v-8.7c0-3.2-1.1-5.5-2.6-5.6l-0.6,0v-0.5h5.8v0.5l-0.3,0c-1.3,0.1-1.9,2-1.9,5.6
		v12.3H124.3z"/>
	<path class="st0" d="M145.8,191.2v-0.5l0.6,0c1.3-0.1,1.6-0.4,1.6-4.1v-9.1c0-3.6-0.1-4-1.3-4h-0.5c-1.7,0-2.9,0.6-4,4l-0.3,0.9
		h-0.4v-5.4h15.3v5.4h-0.4l-0.3-0.9c-1.1-3.4-2.3-4-4-4h-0.5c-1.2,0-1.3,0.3-1.3,4v9.1c0,3.7,0.2,4,1.6,4.1l0.6,0v0.5H145.8z"/>
	<path class="st0" d="M171.4,191.2v-0.5l0.6,0c1.3-0.1,1.6-0.4,1.6-4.1v-9c0-3.7-0.2-4-1.6-4.1l-0.6,0v-0.5h13.2v4.9h-0.4l-0.3-0.9
		c-0.9-3-2.9-3.5-5.5-3.5h-1.2c-1.2,0-1.3,0.4-1.3,4.1v4h1.5c1.2,0,2.5-0.1,3-2.2l0.2-0.6h0.4v6.1h-0.4l-0.2-0.6
		c-0.6-2.1-1.9-2.2-3-2.2h-1.5v4.5c0,3.6,0.1,4.1,1.3,4.1h1.7c2.8,0,4.4-0.8,5.5-4.3l0.3-0.9h0.4v5.7H171.4z"/>
	<path class="st0" d="M215.3,191.5c-0.6-0.9-1.1-1.3-1.7-1.3c-0.3,0-0.5,0.1-0.9,0.3c-1.1,0.7-2.3,1-3.6,1c-5.6,0-8.4-4.6-8.4-9.4
		c0-4.8,2.9-9.4,8.3-9.4c1.1,0,2.1,0.3,3.1,0.8c0.5,0.2,0.8,0.3,1.1,0.3c0.4,0,0.8-0.3,1.4-1.1h0.3v5.2h-0.4l-0.3-0.9
		c-0.6-1.9-2.5-3.8-5.2-3.8c-4,0-5.5,4.4-5.5,8.9c0,4.4,1.4,8.9,5.7,8.9c1.3,0,2.4-0.4,3.2-1c0.7-0.5,0.9-1,0.9-2.2v-0.7
		c0-3.7-0.2-3.9-2.6-4.1l-0.6,0v-0.5h7.8v0.5l-0.6,0c-1.3,0.1-1.6,0.4-1.6,4.1v4.4H215.3z"/>
	<path class="st0" d="M245,191.2c-0.2-0.5-0.6-1.2-1.1-2.2c-0.5-1-1.3-2.6-1.8-3.4c-1.5-2.5-2.3-3.1-4.1-3.1h-1.6v4.2
		c0,3.7,0.2,4,1.6,4.1l0.6,0v0.5h-6.7v-0.5l0.6,0c1.3-0.1,1.6-0.4,1.6-4.1v-9c0-3.7-0.2-4-1.6-4.1l-0.6,0v-0.5h8.9
		c3.2,0,5.9,1.5,5.9,4.6c0,2-1.3,3.6-3.1,4.2c-1.2,0.4-2.2,0.5-3.3,0.5c2.6,0.8,3.3,1.4,4.4,3.1c0.5,0.9,1.2,1.9,1.4,2.4
		c1.2,1.9,2,2.8,3,2.9l0.5,0v0.5H245z M240.7,173.5h-3c-1.2,0-1.3,0.4-1.3,4.1v4.3h4.1c2.8,0,3.4-1.9,3.4-4.2
		C243.8,175,242.6,173.5,240.7,173.5z"/>
	<path class="st0" d="M274.4,191.2v-0.5l0.7,0c1.3-0.1,1.3-0.6,0-4.1l-1.1-2.8h-6.2l-0.6,1.6c-0.5,1.3-0.7,2.4-0.7,3.4
		c0,1,0.3,1.7,1.4,1.8l0.6,0v0.5H263v-0.5l0.3,0c1-0.1,1.6-0.7,3.3-5.2l4.9-12.7h0.5l5.6,13.6c1.6,3.8,1.9,4.1,3,4.2l0.2,0v0.5
		H274.4z M268,183.3h5.9l-3-7.7L268,183.3z"/>
	<path class="st0" d="M296.4,191.2v-0.5l0.6,0c1.3-0.1,1.6-0.4,1.6-4.1v-9.1c0-3.6-0.1-4-1.3-4h-0.5c-1.7,0-2.9,0.6-4,4l-0.3,0.9
		h-0.4v-5.4h15.3v5.4H307l-0.3-0.9c-1.1-3.4-2.3-4-4-4h-0.5c-1.2,0-1.3,0.3-1.3,4v9.1c0,3.7,0.2,4,1.6,4.1l0.6,0v0.5H296.4z"/>
	<path class="st0" d="M322,191.2v-0.5l0.6,0c1.3-0.1,1.6-0.4,1.6-4.1v-9c0-3.7-0.2-4-1.6-4.1l-0.6,0v-0.5h13.2v4.9h-0.4l-0.3-0.9
		c-0.9-3-2.9-3.5-5.5-3.5h-1.2c-1.2,0-1.3,0.4-1.3,4.1v4h1.5c1.2,0,2.5-0.1,3-2.2l0.2-0.6h0.4v6.1h-0.4l-0.2-0.6
		c-0.6-2.1-1.9-2.2-3-2.2h-1.5v4.5c0,3.6,0.1,4.1,1.3,4.1h1.7c2.8,0,4.4-0.8,5.5-4.3l0.3-0.9h0.4v5.7H322z"/>
	<path class="st0" d="M360.3,191.2h-8.6v-0.5l0.6,0c1.3-0.1,1.6-0.4,1.6-4.1v-9c0-3.7-0.2-4-1.6-4.1l-0.6,0v-0.5h8.6
		c6.1,0,9.3,4.1,9.3,9C369.6,187,366.2,191.2,360.3,191.2z M360.3,173.5h-2.8c-1.2,0-1.3,0.4-1.3,4.1v9c0,3.6,0.1,4.1,1.3,4.1h2.8
		c4.7,0,6.5-4.3,6.5-8.6C366.8,177.6,364.6,173.5,360.3,173.5z"/>
	<path class="st0" d="M415.4,191.2v-0.5l0.7,0c1.3-0.1,1.3-0.6,0-4.1l-1.1-2.8h-6.2l-0.6,1.6c-0.5,1.3-0.7,2.4-0.7,3.4
		c0,1,0.3,1.7,1.4,1.8l0.6,0v0.5h-5.5v-0.5l0.3,0c1-0.1,1.6-0.7,3.3-5.2l4.9-12.7h0.5l5.6,13.6c1.6,3.8,1.9,4.1,3,4.2l0.2,0v0.5
		H415.4z M408.9,183.3h5.9l-3-7.7L408.9,183.3z"/>
	<path class="st0" d="M449.8,191.5c-0.6-0.9-1.1-1.3-1.7-1.3c-0.3,0-0.5,0.1-0.9,0.3c-1.1,0.7-2.3,1-3.6,1c-5.6,0-8.4-4.6-8.4-9.4
		c0-4.8,2.9-9.4,8.3-9.4c1.1,0,2.1,0.3,3.1,0.8c0.5,0.2,0.8,0.3,1.1,0.3c0.4,0,0.8-0.3,1.4-1.1h0.3v5.2H449l-0.3-0.9
		c-0.6-1.9-2.5-3.8-5.2-3.8c-4,0-5.5,4.4-5.5,8.9c0,4.4,1.4,8.9,5.7,8.9c1.3,0,2.4-0.4,3.2-1c0.7-0.5,0.9-1,0.9-2.2v-0.7
		c0-3.7-0.2-3.9-2.6-4.1l-0.6,0v-0.5h7.8v0.5l-0.6,0c-1.3,0.1-1.6,0.4-1.6,4.1v4.4H449.8z"/>
	<path class="st0" d="M466.3,191.2v-0.5l0.6,0c1.3-0.1,1.6-0.4,1.6-4.1v-9c0-3.7-0.2-4-1.6-4.1l-0.6,0v-0.5h13.2v4.9h-0.4l-0.3-0.9
		c-0.9-3-2.9-3.5-5.5-3.5h-1.2c-1.2,0-1.3,0.4-1.3,4.1v4h1.5c1.2,0,2.5-0.1,3-2.2l0.2-0.6h0.4v6.1h-0.4l-0.2-0.6
		c-0.6-2.1-1.9-2.2-3-2.2h-1.5v4.5c0,3.6,0.1,4.1,1.3,4.1h1.7c2.8,0,4.4-0.8,5.5-4.3l0.3-0.9h0.4v5.7H466.3z"/>
	<path class="st0" d="M512.5,191.4l-13.9-16.5v9.8c0,3.4,1.2,5.9,2.6,6l0.6,0v0.5H496v-0.5l0.3,0c1.2-0.1,1.9-1.9,1.9-6v-7.5
		c0-3.3-0.5-3.6-1.7-3.7l-0.5,0v-0.5h4.4l12.2,14.8v-8.7c0-3.2-1.1-5.5-2.6-5.6l-0.6,0v-0.5h5.8v0.5l-0.3,0c-1.3,0.1-1.9,2-1.9,5.6
		v12.3H512.5z"/>
	<path class="st0" d="M544.7,191.5c-0.6-0.9-1.2-1.3-1.7-1.3c-0.2,0-0.4,0.1-0.8,0.3c-1,0.6-2,1-3.3,1c-5.6,0-8.4-4.6-8.4-9.4
		c0-4.8,2.9-9.4,8.3-9.4c1.1,0,2.1,0.3,3.1,0.8c0.5,0.2,0.8,0.3,1.1,0.3c0.4,0,0.9-0.3,1.4-1.1h0.3v5.2h-0.4l-0.3-0.9
		c-0.6-1.9-2.5-3.8-5.2-3.8c-4,0-5.5,4.5-5.5,8.9c0,4.5,1.6,8.9,5.6,8.9c3.2,0,5-2.8,5.6-4.6l0.3-0.9h0.4v6H544.7z"/>
	<path class="st0" d="M564,191.2v-0.5l0.6,0c1.3-0.1,1.6-0.4,1.6-4.1v-4l-3-4.7c-2.2-3.5-2.8-4.3-3.9-4.3l-0.5,0v-0.5h6.6v0.5
		l-0.6,0c-1.5,0.1-1,0.9,0.9,4.2l2.5,4.2l2.1-3.2c0.8-1.2,1.6-2.8,1.6-3.8c0-0.8-0.3-1.4-1.4-1.5l-0.6,0v-0.5h5.9v0.5l-0.6,0
		c-1,0.1-1.5,0.8-4.4,5.3l-2.4,3.6v4.2c0,3.7,0.2,4,1.6,4.1l0.6,0v0.5H564z"/>
</g>
</svg>
