<?xml version="1.0" encoding="utf-8"?>
<!-- Generator: Adobe Illustrator 16.0.0, SVG Export Plug-In . SVG Version: 6.00 Build 0)  -->
<!DOCTYPE svg PUBLIC "-//W3C//DTD SVG 1.1//EN" "http://www.w3.org/Graphics/SVG/1.1/DTD/svg11.dtd">
<svg version="1.1" id="Layer_1" xmlns="http://www.w3.org/2000/svg" xmlns:xlink="http://www.w3.org/1999/xlink" x="0px" y="0px"
	 width="360px" height="180px" viewBox="0 0 360 180" enable-background="new 0 0 360 180" xml:space="preserve">
<g>
	<g id="mEs5ZV_1_">
		<g>
			<path fill-rule="evenodd" clip-rule="evenodd" fill="#F04F23" d="M48.806,79.424c-0.769-0.859-1.51-1.616-2.17-2.438
				c-2.41-3.003-2.631-6.339-0.657-9.635c1.392-2.322,3.353-4.072,5.63-5.483c6.466-4.01,13.513-6.302,21.064-7.097
				c10.022-1.055,19.607,0.428,28.656,4.961c2.966,1.486,5.697,3.323,7.915,5.827c2.933,3.308,4.557,7.091,3.955,11.604
				c-0.265,1.98-0.957,2.954-3.129,4.657c3.448,2.645,3.626,6.576,3.779,10.352c0.26,6.416,0.282,12.846,0.228,19.268
				c-0.021,2.504-0.494,5.007-0.81,7.503c-0.438,3.454-2.369,5.084-6.205,5.586c-4.345,0.568-8.688,0.142-13.013-0.369
				c-6.091-0.717-12.17-1.913-18.328-1.272c-5.65,0.59-11.257,1.572-16.899,2.253c-2.565,0.31-5.168,0.429-7.753,0.41
				c-2.244-0.016-3.859-1.364-5.088-3.155c-1.628-2.369-2.44-5.083-2.708-7.875c-0.424-4.401-0.836-8.834-0.765-13.245
				C42.634,93.501,43.994,85.983,48.806,79.424z M101.92,80.741c2.935-2.912,3.07-4.771,0.647-8.199
				c-1.532-2.167-3.491-3.845-5.83-5.088c-4.582-2.436-9.473-3.807-14.629-4.296c-7.078-0.673-13.958,0.097-20.556,2.839
				c-2.708,1.126-5.106,2.716-6.799,5.179c-1.858,2.705-1.488,5.355,0.978,7.474c0.355,0.306,0.684,0.641,1.024,0.961
				c-0.138-0.017-0.276-0.033-0.415-0.051c-1.081,2.21-2.364,4.345-3.204,6.642c-2.167,5.92-2.632,12.116-2.502,18.368
				c0.057,2.749,0.537,5.414,1.86,7.871c1.636,3.037,3.832,4.252,7.187,3.897c1.004-0.105,1.999-0.354,2.982-0.602
				c4.968-1.247,9.956-2.63,15.102-2.483c4.449,0.127,8.878,0.878,13.323,1.271c3.19,0.28,6.394,0.609,9.587,0.581
				c3.078-0.026,5.024-1.955,5.567-4.986c1.155-6.451,1.307-12.936,0.467-19.432C106.215,86.862,105.541,83.079,101.92,80.741z"/>
		</g>
	</g>
	<g id="t1nFFl_1_">
		<g>
			<g>
				<path fill-rule="evenodd" clip-rule="evenodd" fill="#F04F23" d="M317.5,116.506c-0.34,0.658-0.582,1.398-1.041,1.959
					c-1.224,1.488-3.025,1.792-4.791,1.983c-1.587,0.172-3.212,0.294-4.793,0.145c-2.966-0.28-5.758-1.138-7.751-3.569
					c-1.196-1.459-1.959-3.151-2.199-5.032c-0.141-1.1-0.224-2.214-0.227-3.322c-0.021-6.789-0.01-13.58-0.013-20.371
					c0-0.33-0.027-0.66-0.045-1.065c-0.915,0-1.781,0.004-2.648-0.002c-3.561-0.022-5.972-4.016-4.214-7.107
					c0.917-1.61,2.423-2.495,4.32-2.578c0.821-0.035,1.646-0.006,2.525-0.006c0.024-0.341,0.06-0.623,0.061-0.905
					c0.005-1.81-0.006-3.619,0.007-5.428c0.015-1.971,0.767-3.526,2.465-4.643c1.596-1.049,3.274-1.254,5.019-0.639
					c2.253,0.795,3.727,2.995,3.637,5.408c-0.074,2.027-0.015,4.061-0.015,6.206c0.347,0,0.648-0.009,0.949,0.002
					c1.442,0.047,2.928-0.104,4.319,0.188c2.881,0.604,4.532,3.632,3.463,6.512c-0.585,1.577-2.579,2.973-4.298,2.989
					c-1.406,0.013-2.813,0.013-4.22,0.021c-0.039,0-0.08,0.03-0.17,0.066c-0.013,0.17-0.043,0.363-0.043,0.557
					c-0.001,6.075-0.011,12.151,0.008,18.227c0.004,1.372,0.234,2.719,1.301,3.714c0.64,0.598,1.418,0.977,2.335,0.969
					c1.044-0.01,2.07,0.002,3.083,0.377c1.575,0.585,2.441,1.719,2.834,3.294c0.037,0.15,0.095,0.296,0.142,0.443
					C317.5,115.434,317.5,115.97,317.5,116.506z"/>
				<path fill-rule="evenodd" clip-rule="evenodd" fill="#F04F23" d="M197.59,98.309c0.023,4.419-0.981,8.356-3.048,11.992
					c-1.169,2.057-2.696,3.872-4.526,5.369c-2.777,2.272-5.953,3.738-9.488,4.472c-2.402,0.496-4.821,0.654-7.237,0.458
					c-3.445-0.279-6.735-1.204-9.749-2.963c-2.329-1.36-4.25-3.172-5.918-5.286c-2.042-2.585-3.224-5.559-3.979-8.713
					c-0.283-1.18-0.318-2.42-0.44-3.636c-0.253-2.542,0.086-5.048,0.691-7.499c0.534-2.168,1.441-4.202,2.646-6.107
					c0.98-1.55,2.102-2.962,3.442-4.205c1.964-1.822,4.202-3.201,6.715-4.136c2.388-0.887,4.853-1.317,7.398-1.477
					c3.193-0.198,6.279,0.272,9.282,1.253c1.884,0.614,3.698,1.459,5.278,2.707c0.869,0.687,1.799,1.312,2.576,2.089
					c2.184,2.183,3.846,4.728,4.904,7.638C197.107,92.933,197.625,95.692,197.59,98.309z M185.984,98.576
					c0-0.691,0.066-1.389-0.012-2.071c-0.223-1.926-0.754-3.778-1.867-5.375c-0.693-0.994-1.488-1.981-2.436-2.718
					c-1.667-1.301-3.631-1.929-5.779-2.014c-3.73-0.148-6.786,1.157-8.955,4.201c-1.476,2.071-2.186,4.48-2.279,7.023
					c-0.112,3.034,0.368,5.938,2.047,8.569c0.969,1.517,2.194,2.711,3.801,3.504c2.498,1.229,5.104,1.41,7.782,0.729
					c2.696-0.686,4.643-2.368,6.02-4.716C185.592,103.52,186.182,101.13,185.984,98.576z"/>
				<path fill-rule="evenodd" clip-rule="evenodd" fill="#F04F23" d="M230.916,115.412c-0.274,0.228-0.436,0.337-0.567,0.475
					c-2.297,2.386-5.181,3.619-8.353,4.331c-1.953,0.439-3.935,0.588-5.899,0.375c-2.274-0.246-4.463-0.938-6.427-2.15
					c-3.427-2.116-5.672-5.075-6.346-9.127c-0.52-3.129-0.266-6.161,1.203-8.999c1.255-2.427,3.15-4.245,5.619-5.449
					c1.994-0.974,4.104-1.483,6.315-1.652c3.705-0.279,7.233,0.372,10.544,2.024c1.128,0.562,2.11,1.422,3.15,2.159
					c0.224,0.158,0.411,0.37,0.761,0.692c0.042-0.42,0.084-0.646,0.084-0.873c0.006-1.519,0.015-3.038,0.001-4.557
					c-0.029-3.147-1.86-5.321-4.748-6.347c-2.014-0.716-4.085-0.847-6.177-0.666c-2.817,0.242-5.438,1.105-7.802,2.699
					c-1.23,0.829-3.285,0.611-4.422-0.36c-1.003-0.857-1.594-1.938-1.672-3.208c-0.072-1.186,0.447-2.254,1.265-3.118
					c1.448-1.529,3.253-2.547,5.242-3.126c2.392-0.696,4.835-1.217,7.264-1.773c0.56-0.128,1.155-0.093,1.733-0.137
					c3.849-0.303,7.617,0.107,11.234,1.466c1.183,0.443,2.281,1.146,3.354,1.833c0.7,0.449,1.313,1.051,1.916,1.634
					c1.703,1.647,2.683,3.702,3.284,5.963c0.431,1.623,0.565,3.276,0.565,4.949c-0.005,7.303-0.051,14.607,0.023,21.909
					c0.026,2.615-1.846,5.153-4.289,5.588c-2.168,0.384-4.232,0.165-5.76-1.691c-0.505-0.612-0.882-1.313-0.941-2.142
					C231.06,115.943,230.992,115.757,230.916,115.412z M231.02,106.897c0-0.714,0.043-1.433-0.019-2.142
					c-0.03-0.344-0.184-0.737-0.41-0.994c-0.959-1.084-2.18-1.76-3.539-2.26c-2.772-1.019-5.57-1.197-8.394-0.326
					c-1.145,0.353-2.213,0.95-3.008,1.869c-0.727,0.841-1.241,1.833-1.385,2.959c-0.202,1.568,0.018,3.076,1.008,4.349
					c1.315,1.691,3.178,2.428,5.23,2.716c2.569,0.361,5.041-0.075,7.414-1.08c1.185-0.502,2.256-1.265,2.909-2.34
					c0.345-0.568,0.149-1.466,0.191-2.216C231.029,107.255,231.021,107.076,231.02,106.897z"/>
				<path fill-rule="evenodd" clip-rule="evenodd" fill="#F04F23" d="M269.277,120.687c-4.859-0.067-8.636-0.686-12.285-1.953
					c-2.08-0.722-4.039-1.679-5.503-3.446c-1.297-1.565-1.297-3.5-0.248-4.989c0.979-1.395,2.364-2.351,4.169-2.161
					c0.825,0.087,1.658,0.461,2.406,0.856c3.59,1.902,7.333,3.215,11.454,3.119c1.442-0.034,2.859-0.271,4.183-0.916
					c1.668-0.812,2.661-2.887,2.136-4.391c-0.41-1.168-1.322-1.801-2.388-2.116c-2.114-0.625-4.259-1.162-6.414-1.634
					c-3.721-0.812-7.472-1.524-10.772-3.563c-2.399-1.481-4.163-3.506-4.844-6.315c-0.809-3.33-0.495-6.531,1.3-9.505
					c0.87-1.44,2.044-2.606,3.402-3.604c1.256-0.923,2.605-1.629,4.069-2.171c2.036-0.756,4.123-1.229,6.284-1.27
					c1.812-0.035,3.642-0.063,5.437,0.141c2.505,0.286,4.96,0.867,7.306,1.86c1.463,0.619,2.784,1.409,3.894,2.554
					c1.303,1.341,1.477,3.345,0.378,4.864c-1.83,2.533-4.304,2.258-6.024,1.289c-2.007-1.131-4.142-1.896-6.439-2.09
					c-1.478-0.124-2.981-0.256-4.447-0.113c-1.784,0.174-3.483,0.782-4.464,2.47c-0.698,1.202-0.61,2.725,0.811,3.554
					c1.76,1.027,3.731,1.353,5.663,1.789c3.083,0.696,6.194,1.227,9.176,2.375c2.633,1.014,4.917,2.434,6.67,4.639
					c0.944,1.189,1.517,2.585,1.813,4.072c0.605,3.046,0.451,6.021-1.058,8.805c-0.85,1.567-2.015,2.857-3.441,3.98
					c-2.131,1.679-4.56,2.635-7.131,3.197C272.385,120.446,270.33,120.557,269.277,120.687z"/>
				<path fill-rule="evenodd" clip-rule="evenodd" fill="#F04F23" d="M139.712,77.539c1.459,0,2.798-0.021,4.137,0.004
					c3.894,0.073,6.123,4.021,4.291,7.272c-0.813,1.443-2.149,2.428-3.974,2.418c-1.449-0.009-2.898-0.001-4.42-0.001
					c-0.013,0.282-0.032,0.52-0.032,0.756c-0.002,5.941-0.018,11.884,0.01,17.825c0.006,1.329,0.175,2.67,1.074,3.747
					c0.668,0.802,1.575,1.158,2.627,1.234c1.007,0.073,2.026,0.168,3.006,0.398c1.582,0.373,2.441,1.531,2.8,3.043
					c0.436,1.84,0.188,3.566-1.418,4.768c-0.703,0.525-1.588,0.897-2.447,1.109c-3.317,0.82-6.646,0.768-9.928-0.216
					c-1.803-0.541-3.362-1.543-4.521-3.018c-1.176-1.499-1.891-3.249-2.094-5.161c-0.119-1.124-0.188-2.26-0.19-3.391
					c-0.017-6.723-0.008-13.448-0.009-20.171c0-0.924-0.004-0.89-0.899-0.935c-1.127-0.056-2.299-0.005-3.366-0.305
					c-1.795-0.503-3.044-2.325-3.217-4.298c-0.244-2.798,2.483-5.149,5.079-5.082c0.469,0.012,0.938,0.001,1.407,0.001
					c0.995-0.001,0.996-0.001,0.997-0.966c0.002-1.788,0.003-3.575,0.001-5.362c-0.002-1.604,0.513-3.005,1.695-4.106
					c2.004-1.865,5.56-2.137,7.661-0.013c1.18,1.192,1.792,2.529,1.744,4.215c-0.051,1.809-0.012,3.619-0.012,5.428
					C139.712,76.975,139.712,77.214,139.712,77.539z"/>
			</g>
		</g>
	</g>
</g>
</svg>
